<svg width="390" height="844" viewBox="0 0 390 844" fill="none" xmlns="http://www.w3.org/2000/svg">
<g clip-path="url(#clip0_136_327)">
<rect width="390" height="844" fill="white"/>
<rect x="0.5" y="0.5" width="389" height="66" fill="white" stroke="black"/>
<mask id="path-4-inside-1_136_327" fill="white">
<path d="M0 0H63C65.7614 0 68 2.23858 68 5V62C68 64.7614 65.7614 67 63 67H0V0Z"/>
</mask>
<path d="M0 0H63C65.7614 0 68 2.23858 68 5V62C68 64.7614 65.7614 67 63 67H0V0Z" fill="white"/>
<path d="M0 0H68H0ZM70 62C70 65.866 66.866 69 63 69H0V65H63C64.6569 65 66 63.6569 66 62H70ZM0 67V0V67ZM63 0C66.866 0 70 3.13401 70 7V62C70 65.866 66.866 69 63 69V65C64.6569 65 66 63.6569 66 62V5C66 2.23858 64.6569 0 63 0Z" fill="black" mask="url(#path-4-inside-1_136_327)"/>
<path d="M17 44.5H52" stroke="black" stroke-width="3"/>
<path d="M17 17.5H52" stroke="black" stroke-width="3"/>
<path d="M17 31.5H52" stroke="black" stroke-width="3"/>
<path d="M105.676 31.2216H103.017C102.915 30.6534 102.725 30.1534 102.446 29.7216C102.168 29.2898 101.827 28.9233 101.424 28.6222C101.02 28.321 100.569 28.0937 100.069 27.9403C99.5742 27.7869 99.0487 27.7102 98.4918 27.7102C97.4862 27.7102 96.5856 27.9631 95.7901 28.4688C95.0004 28.9744 94.3754 29.7159 93.9151 30.6932C93.4606 31.6705 93.2333 32.8636 93.2333 34.2727C93.2333 35.6932 93.4606 36.892 93.9151 37.8693C94.3754 38.8466 95.0032 39.5852 95.7987 40.0852C96.5941 40.5852 97.489 40.8352 98.4833 40.8352C99.0344 40.8352 99.5572 40.7614 100.051 40.6136C100.551 40.4602 101.003 40.2358 101.407 39.9403C101.81 39.6449 102.151 39.2841 102.429 38.858C102.713 38.4261 102.909 37.9318 103.017 37.375L105.676 37.3835C105.534 38.2415 105.259 39.0312 104.85 39.7528C104.446 40.4688 103.926 41.0881 103.29 41.6108C102.659 42.1278 101.938 42.5284 101.125 42.8125C100.313 43.0966 99.4265 43.2386 98.4663 43.2386C96.9549 43.2386 95.6083 42.8807 94.4265 42.1648C93.2447 41.4432 92.3129 40.4119 91.631 39.071C90.9549 37.7301 90.6168 36.1307 90.6168 34.2727C90.6168 32.4091 90.9577 30.8097 91.6396 29.4744C92.3214 28.1335 93.2532 27.1051 94.435 26.3892C95.6168 25.6676 96.9606 25.3068 98.4663 25.3068C99.3924 25.3068 100.256 25.4403 101.057 25.7074C101.864 25.9687 102.588 26.3551 103.23 26.8665C103.873 27.3722 104.404 27.9915 104.824 28.7244C105.245 29.4517 105.529 30.2841 105.676 31.2216ZM114.137 43.2642C112.91 43.2642 111.839 42.983 110.924 42.4205C110.01 41.858 109.299 41.071 108.794 40.0597C108.288 39.0483 108.035 37.8665 108.035 36.5142C108.035 35.1562 108.288 33.9687 108.794 32.9517C109.299 31.9347 110.01 31.1449 110.924 30.5824C111.839 30.0199 112.91 29.7386 114.137 29.7386C115.365 29.7386 116.436 30.0199 117.35 30.5824C118.265 31.1449 118.975 31.9347 119.481 32.9517C119.987 33.9687 120.24 35.1562 120.24 36.5142C120.24 37.8665 119.987 39.0483 119.481 40.0597C118.975 41.071 118.265 41.858 117.35 42.4205C116.436 42.983 115.365 43.2642 114.137 43.2642ZM114.146 41.125C114.941 41.125 115.6 40.9148 116.123 40.4943C116.646 40.0739 117.032 39.5142 117.282 38.8153C117.538 38.1165 117.666 37.3466 117.666 36.5057C117.666 35.6705 117.538 34.9034 117.282 34.2045C117.032 33.5 116.646 32.9347 116.123 32.5085C115.6 32.0824 114.941 31.8693 114.146 31.8693C113.345 31.8693 112.68 32.0824 112.152 32.5085C111.629 32.9347 111.24 33.5 110.984 34.2045C110.734 34.9034 110.609 35.6705 110.609 36.5057C110.609 37.3466 110.734 38.1165 110.984 38.8153C111.24 39.5142 111.629 40.0739 112.152 40.4943C112.68 40.9148 113.345 41.125 114.146 41.125ZM123.084 43V29.9091H125.53V32.0398H125.692C125.965 31.3182 126.411 30.7557 127.03 30.3523C127.65 29.9432 128.391 29.7386 129.255 29.7386C130.13 29.7386 130.863 29.9432 131.453 30.3523C132.05 30.7614 132.49 31.3239 132.775 32.0398H132.911C133.223 31.3409 133.721 30.7841 134.402 30.3693C135.084 29.9489 135.897 29.7386 136.84 29.7386C138.027 29.7386 138.996 30.1108 139.746 30.8551C140.502 31.5994 140.88 32.7216 140.88 34.2216V43H138.331V34.4602C138.331 33.5739 138.09 32.9318 137.607 32.5341C137.124 32.1364 136.547 31.9375 135.877 31.9375C135.047 31.9375 134.402 32.1932 133.942 32.7045C133.482 33.2102 133.252 33.8608 133.252 34.6562V43H130.712V34.2983C130.712 33.5881 130.49 33.017 130.047 32.5852C129.604 32.1534 129.027 31.9375 128.317 31.9375C127.834 31.9375 127.388 32.0653 126.979 32.321C126.576 32.571 126.249 32.9205 125.999 33.3693C125.755 33.8182 125.632 34.3381 125.632 34.929V43H123.084ZM144.295 47.9091V29.9091H146.784V32.0312H146.997C147.145 31.7585 147.358 31.4432 147.636 31.0852C147.914 30.7273 148.301 30.4148 148.795 30.1477C149.289 29.875 149.943 29.7386 150.755 29.7386C151.812 29.7386 152.755 30.0057 153.585 30.5398C154.414 31.0739 155.065 31.8437 155.537 32.8494C156.014 33.8551 156.252 35.0653 156.252 36.4801C156.252 37.8949 156.017 39.108 155.545 40.1193C155.074 41.125 154.426 41.9006 153.602 42.446C152.778 42.9858 151.838 43.2557 150.781 43.2557C149.985 43.2557 149.335 43.1222 148.829 42.8551C148.329 42.5881 147.937 42.2756 147.653 41.9176C147.369 41.5597 147.15 41.2415 146.997 40.9631H146.843V47.9091H144.295ZM146.792 36.4545C146.792 37.375 146.926 38.1818 147.193 38.875C147.46 39.5682 147.846 40.1108 148.352 40.5028C148.858 40.8892 149.477 41.0824 150.21 41.0824C150.971 41.0824 151.608 40.8807 152.119 40.4773C152.63 40.0682 153.017 39.5142 153.278 38.8153C153.545 38.1165 153.679 37.3295 153.679 36.4545C153.679 35.5909 153.548 34.8153 153.287 34.1278C153.031 33.4403 152.645 32.8977 152.127 32.5C151.616 32.1023 150.977 31.9034 150.21 31.9034C149.471 31.9034 148.846 32.0937 148.335 32.4744C147.829 32.8551 147.446 33.3864 147.184 34.0682C146.923 34.75 146.792 35.5455 146.792 36.4545ZM162.917 43.2898C162.088 43.2898 161.338 43.1364 160.667 42.8295C159.997 42.517 159.466 42.0653 159.074 41.4744C158.687 40.8835 158.494 40.1591 158.494 39.3011C158.494 38.5625 158.636 37.9545 158.92 37.4773C159.204 37 159.588 36.6222 160.071 36.3438C160.554 36.0653 161.093 35.8551 161.69 35.7131C162.287 35.571 162.895 35.4631 163.514 35.3892C164.298 35.2983 164.934 35.2244 165.423 35.1676C165.912 35.1051 166.267 35.0057 166.488 34.8693C166.71 34.733 166.821 34.5114 166.821 34.2045V34.1449C166.821 33.4006 166.61 32.8239 166.19 32.4148C165.775 32.0057 165.156 31.8011 164.332 31.8011C163.474 31.8011 162.798 31.9915 162.304 32.3722C161.815 32.7472 161.477 33.1648 161.289 33.625L158.895 33.0795C159.179 32.2841 159.593 31.642 160.139 31.1534C160.69 30.6591 161.324 30.3011 162.039 30.0795C162.755 29.8523 163.508 29.7386 164.298 29.7386C164.821 29.7386 165.375 29.8011 165.96 29.9261C166.551 30.0455 167.102 30.267 167.613 30.5909C168.13 30.9148 168.554 31.3778 168.883 31.9801C169.213 32.5767 169.377 33.3523 169.377 34.3068V43H166.889V41.2102H166.787C166.622 41.5398 166.375 41.8636 166.045 42.1818C165.716 42.5 165.292 42.7642 164.775 42.9744C164.258 43.1847 163.639 43.2898 162.917 43.2898ZM163.471 41.2443C164.176 41.2443 164.778 41.1051 165.278 40.8267C165.784 40.5483 166.167 40.1847 166.429 39.7358C166.696 39.2812 166.829 38.7955 166.829 38.2784V36.5909C166.738 36.6818 166.562 36.767 166.301 36.8466C166.045 36.9205 165.752 36.9858 165.423 37.0426C165.093 37.0937 164.772 37.142 164.46 37.1875C164.147 37.2273 163.886 37.2614 163.676 37.2898C163.181 37.3523 162.73 37.4574 162.321 37.6051C161.917 37.7528 161.593 37.9659 161.349 38.2443C161.11 38.517 160.991 38.8807 160.991 39.3352C160.991 39.9659 161.224 40.4432 161.69 40.767C162.156 41.0852 162.75 41.2443 163.471 41.2443ZM172.772 43V29.9091H175.235V31.9886H175.371C175.61 31.2841 176.03 30.7301 176.632 30.3267C177.24 29.9176 177.928 29.7131 178.695 29.7131C178.854 29.7131 179.042 29.7187 179.257 29.7301C179.479 29.7415 179.652 29.7557 179.777 29.7727V32.2102C179.675 32.1818 179.493 32.1506 179.232 32.1165C178.971 32.0767 178.709 32.0568 178.448 32.0568C177.846 32.0568 177.309 32.1847 176.837 32.4403C176.371 32.6903 176.002 33.0398 175.729 33.4886C175.456 33.9318 175.32 34.4375 175.32 35.0057V43H172.772ZM188.867 29.9091V31.9545H181.716V29.9091H188.867ZM183.634 26.7727H186.182V39.1562C186.182 39.6506 186.256 40.0227 186.404 40.2727C186.551 40.517 186.742 40.6847 186.975 40.7756C187.213 40.8608 187.472 40.9034 187.75 40.9034C187.955 40.9034 188.134 40.8892 188.287 40.8608C188.441 40.8324 188.56 40.8097 188.645 40.7926L189.105 42.8977C188.958 42.9545 188.748 43.0114 188.475 43.0682C188.202 43.1307 187.861 43.1648 187.452 43.1705C186.782 43.1818 186.157 43.0625 185.577 42.8125C184.998 42.5625 184.529 42.1761 184.171 41.6534C183.813 41.1307 183.634 40.4744 183.634 39.6847V26.7727ZM191.686 43V29.9091H194.234V43H191.686ZM192.973 27.8892C192.529 27.8892 192.149 27.7415 191.831 27.446C191.518 27.1449 191.362 26.7869 191.362 26.3722C191.362 25.9517 191.518 25.5937 191.831 25.2983C192.149 24.9972 192.529 24.8466 192.973 24.8466C193.416 24.8466 193.794 24.9972 194.106 25.2983C194.424 25.5937 194.583 25.9517 194.583 26.3722C194.583 26.7869 194.424 27.1449 194.106 27.446C193.794 27.7415 193.416 27.8892 192.973 27.8892ZM197.662 43V29.9091H200.125V31.9886H200.262C200.5 31.2841 200.921 30.7301 201.523 30.3267C202.131 29.9176 202.819 29.7131 203.586 29.7131C203.745 29.7131 203.932 29.7187 204.148 29.7301C204.37 29.7415 204.543 29.7557 204.668 29.7727V32.2102C204.566 32.1818 204.384 32.1506 204.123 32.1165C203.861 32.0767 203.6 32.0568 203.338 32.0568C202.736 32.0568 202.199 32.1847 201.728 32.4403C201.262 32.6903 200.892 33.0398 200.62 33.4886C200.347 33.9318 200.211 34.4375 200.211 35.0057V43H197.662ZM213.225 43V29.9091H215.688V31.9886H215.824C216.063 31.2841 216.483 30.7301 217.086 30.3267C217.694 29.9176 218.381 29.7131 219.148 29.7131C219.307 29.7131 219.495 29.7187 219.711 29.7301C219.932 29.7415 220.105 29.7557 220.23 29.7727V32.2102C220.128 32.1818 219.946 32.1506 219.685 32.1165C219.424 32.0767 219.162 32.0568 218.901 32.0568C218.299 32.0568 217.762 32.1847 217.29 32.4403C216.824 32.6903 216.455 33.0398 216.182 33.4886C215.909 33.9318 215.773 34.4375 215.773 35.0057V43H213.225ZM227.609 43.2642C226.319 43.2642 225.208 42.9886 224.277 42.4375C223.35 41.8807 222.635 41.0994 222.129 40.0938C221.629 39.0824 221.379 37.8977 221.379 36.5398C221.379 35.1989 221.629 34.017 222.129 32.9943C222.635 31.9716 223.339 31.1733 224.243 30.5994C225.152 30.0256 226.214 29.7386 227.43 29.7386C228.169 29.7386 228.885 29.8608 229.578 30.1051C230.271 30.3494 230.893 30.733 231.444 31.2557C231.995 31.7784 232.43 32.4574 232.748 33.2926C233.066 34.1222 233.225 35.1307 233.225 36.3182V37.2216H222.819V35.3125H230.728C230.728 34.642 230.592 34.0483 230.319 33.5312C230.047 33.0085 229.663 32.5966 229.169 32.2955C228.68 31.9943 228.106 31.8438 227.447 31.8438C226.731 31.8438 226.106 32.0199 225.572 32.3722C225.044 32.7187 224.635 33.1733 224.345 33.7358C224.061 34.2926 223.919 34.8977 223.919 35.5511V37.0426C223.919 37.9176 224.072 38.6619 224.379 39.2756C224.691 39.8892 225.126 40.358 225.683 40.6818C226.24 41 226.89 41.1591 227.635 41.1591C228.118 41.1591 228.558 41.0909 228.956 40.9545C229.353 40.8125 229.697 40.6023 229.987 40.3239C230.277 40.0455 230.498 39.7017 230.652 39.2926L233.064 39.7273C232.87 40.4375 232.524 41.0597 232.024 41.5938C231.529 42.1222 230.907 42.5341 230.157 42.8295C229.413 43.1193 228.564 43.2642 227.609 43.2642ZM244.346 37.571V29.9091H246.902V43H244.397V40.733H244.26C243.959 41.4318 243.476 42.0142 242.811 42.4801C242.152 42.9403 241.331 43.1705 240.348 43.1705C239.507 43.1705 238.763 42.9858 238.115 42.6165C237.473 42.2415 236.968 41.6875 236.598 40.9545C236.235 40.2216 236.053 39.3153 236.053 38.2358V29.9091H238.601V37.929C238.601 38.821 238.848 39.5312 239.343 40.0597C239.837 40.5881 240.479 40.8523 241.269 40.8523C241.746 40.8523 242.221 40.733 242.692 40.4943C243.169 40.2557 243.564 39.8949 243.877 39.4119C244.195 38.929 244.351 38.3153 244.346 37.571ZM252.875 35.2273V43H250.326V29.9091H252.772V32.0398H252.934C253.235 31.3466 253.707 30.7898 254.349 30.3693C254.997 29.9489 255.812 29.7386 256.795 29.7386C257.687 29.7386 258.468 29.9261 259.139 30.3011C259.809 30.6705 260.329 31.2216 260.699 31.9545C261.068 32.6875 261.252 33.5937 261.252 34.6733V43H258.704V34.9801C258.704 34.0312 258.457 33.2898 257.963 32.7557C257.468 32.2159 256.789 31.946 255.926 31.946C255.335 31.946 254.809 32.0739 254.349 32.3295C253.895 32.5852 253.534 32.9602 253.267 33.4545C253.005 33.9432 252.875 34.5341 252.875 35.2273ZM264.67 43V29.9091H267.218V43H264.67ZM265.957 27.8892C265.514 27.8892 265.133 27.7415 264.815 27.446C264.502 27.1449 264.346 26.7869 264.346 26.3722C264.346 25.9517 264.502 25.5937 264.815 25.2983C265.133 24.9972 265.514 24.8466 265.957 24.8466C266.4 24.8466 266.778 24.9972 267.091 25.2983C267.409 25.5937 267.568 25.9517 267.568 26.3722C267.568 26.7869 267.409 27.1449 267.091 27.446C266.778 27.7415 266.4 27.8892 265.957 27.8892ZM276.161 43.2642C274.934 43.2642 273.863 42.983 272.948 42.4205C272.033 41.858 271.323 41.071 270.817 40.0597C270.311 39.0483 270.059 37.8665 270.059 36.5142C270.059 35.1562 270.311 33.9687 270.817 32.9517C271.323 31.9347 272.033 31.1449 272.948 30.5824C273.863 30.0199 274.934 29.7386 276.161 29.7386C277.388 29.7386 278.459 30.0199 279.374 30.5824C280.289 31.1449 280.999 31.9347 281.505 32.9517C282.01 33.9687 282.263 35.1562 282.263 36.5142C282.263 37.8665 282.01 39.0483 281.505 40.0597C280.999 41.071 280.289 41.858 279.374 42.4205C278.459 42.983 277.388 43.2642 276.161 43.2642ZM276.169 41.125C276.965 41.125 277.624 40.9148 278.147 40.4943C278.669 40.0739 279.056 39.5142 279.306 38.8153C279.561 38.1165 279.689 37.3466 279.689 36.5057C279.689 35.6705 279.561 34.9034 279.306 34.2045C279.056 33.5 278.669 32.9347 278.147 32.5085C277.624 32.0824 276.965 31.8693 276.169 31.8693C275.368 31.8693 274.703 32.0824 274.175 32.5085C273.652 32.9347 273.263 33.5 273.007 34.2045C272.757 34.9034 272.632 35.6705 272.632 36.5057C272.632 37.3466 272.757 38.1165 273.007 38.8153C273.263 39.5142 273.652 40.0739 274.175 40.4943C274.703 40.9148 275.368 41.125 276.169 41.125ZM275.113 28.1619L277.107 24.233H279.792L277.15 28.1619H275.113ZM287.656 35.2273V43H285.108V29.9091H287.554V32.0398H287.716C288.017 31.3466 288.488 30.7898 289.13 30.3693C289.778 29.9489 290.593 29.7386 291.576 29.7386C292.468 29.7386 293.25 29.9261 293.92 30.3011C294.591 30.6705 295.11 31.2216 295.48 31.9545C295.849 32.6875 296.034 33.5937 296.034 34.6733V43H293.485V34.9801C293.485 34.0312 293.238 33.2898 292.744 32.7557C292.25 32.2159 291.571 31.946 290.707 31.946C290.116 31.946 289.591 32.0739 289.13 32.3295C288.676 32.5852 288.315 32.9602 288.048 33.4545C287.787 33.9432 287.656 34.5341 287.656 35.2273Z" fill="black"/>
<path d="M1 510H391V559H1V510Z" fill="#BFBFBF"/>
<path d="M22.6165 543L17.7756 525.545H20.5455L23.946 539.062H24.108L27.6449 525.545H30.3892L33.9261 539.071H34.0881L37.4801 525.545H40.2585L35.4091 543H32.7585L29.0852 529.926H28.9489L25.2756 543H22.6165ZM45.0036 535.227V543H42.4553V525.545H44.9695V532.04H45.1314C45.4382 531.335 45.907 530.776 46.5376 530.361C47.1683 529.946 47.9922 529.739 49.0092 529.739C49.907 529.739 50.6911 529.923 51.3615 530.293C52.0376 530.662 52.5604 531.213 52.9297 531.946C53.3047 532.673 53.4922 533.582 53.4922 534.673V543H50.9439V534.98C50.9439 534.02 50.6967 533.276 50.2024 532.747C49.7081 532.213 49.0206 531.946 48.1399 531.946C47.5376 531.946 46.9979 532.074 46.5206 532.33C46.049 532.585 45.6768 532.96 45.4041 533.455C45.1371 533.943 45.0036 534.534 45.0036 535.227ZM60.7024 543.29C59.8729 543.29 59.1229 543.136 58.4524 542.83C57.782 542.517 57.2507 542.065 56.8587 541.474C56.4723 540.884 56.2791 540.159 56.2791 539.301C56.2791 538.562 56.4212 537.955 56.7053 537.477C56.9893 537 57.3729 536.622 57.8558 536.344C58.3388 536.065 58.8786 535.855 59.4751 535.713C60.0717 535.571 60.6797 535.463 61.299 535.389C62.0831 535.298 62.7195 535.224 63.2081 535.168C63.6967 535.105 64.0518 535.006 64.2734 534.869C64.495 534.733 64.6058 534.511 64.6058 534.205V534.145C64.6058 533.401 64.3956 532.824 63.9751 532.415C63.5604 532.006 62.9411 531.801 62.1172 531.801C61.2592 531.801 60.5831 531.991 60.0888 532.372C59.6001 532.747 59.2621 533.165 59.0746 533.625L56.6797 533.08C56.9638 532.284 57.3786 531.642 57.924 531.153C58.4751 530.659 59.1087 530.301 59.8246 530.08C60.5405 529.852 61.2933 529.739 62.0831 529.739C62.6058 529.739 63.1598 529.801 63.745 529.926C64.3359 530.045 64.8871 530.267 65.3984 530.591C65.9155 530.915 66.3388 531.378 66.6683 531.98C66.9979 532.577 67.1626 533.352 67.1626 534.307V543H64.674V541.21H64.5717C64.407 541.54 64.1598 541.864 63.8303 542.182C63.5007 542.5 63.0774 542.764 62.5604 542.974C62.0433 543.185 61.424 543.29 60.7024 543.29ZM61.2564 541.244C61.9609 541.244 62.5632 541.105 63.0632 540.827C63.5689 540.548 63.9524 540.185 64.2138 539.736C64.4808 539.281 64.6143 538.795 64.6143 538.278V536.591C64.5234 536.682 64.3473 536.767 64.0859 536.847C63.8303 536.92 63.5376 536.986 63.2081 537.043C62.8786 537.094 62.5575 537.142 62.245 537.188C61.9325 537.227 61.6712 537.261 61.4609 537.29C60.9666 537.352 60.5149 537.457 60.1058 537.605C59.7024 537.753 59.3786 537.966 59.1342 538.244C58.8956 538.517 58.7763 538.881 58.7763 539.335C58.7763 539.966 59.0092 540.443 59.4751 540.767C59.9411 541.085 60.5348 541.244 61.2564 541.244ZM76.6676 529.909V531.955H69.517V529.909H76.6676ZM71.4347 526.773H73.983V539.156C73.983 539.651 74.0568 540.023 74.2045 540.273C74.3523 540.517 74.5426 540.685 74.7756 540.776C75.0142 540.861 75.2727 540.903 75.5511 540.903C75.7557 540.903 75.9347 540.889 76.0881 540.861C76.2415 540.832 76.3608 540.81 76.446 540.793L76.9062 542.898C76.7585 542.955 76.5483 543.011 76.2756 543.068C76.0028 543.131 75.6619 543.165 75.2528 543.17C74.5824 543.182 73.9574 543.062 73.3778 542.812C72.7983 542.562 72.3295 542.176 71.9716 541.653C71.6136 541.131 71.4347 540.474 71.4347 539.685V526.773ZM89.0852 533.105L86.7756 533.514C86.679 533.219 86.5256 532.937 86.3153 532.67C86.1108 532.403 85.8324 532.185 85.4801 532.014C85.1278 531.844 84.6875 531.759 84.1591 531.759C83.4375 531.759 82.8352 531.92 82.3523 532.244C81.8693 532.562 81.6278 532.974 81.6278 533.48C81.6278 533.918 81.7898 534.27 82.1136 534.537C82.4375 534.804 82.9602 535.023 83.6818 535.193L85.7614 535.67C86.9659 535.949 87.8636 536.378 88.4545 536.957C89.0455 537.537 89.3409 538.29 89.3409 539.216C89.3409 540 89.1136 540.699 88.6591 541.312C88.2102 541.92 87.5824 542.398 86.7756 542.744C85.9744 543.091 85.0455 543.264 83.9886 543.264C82.5227 543.264 81.3267 542.952 80.4006 542.327C79.4744 541.696 78.9063 540.801 78.696 539.642L81.1591 539.267C81.3125 539.909 81.6278 540.395 82.1051 540.724C82.5824 541.048 83.2045 541.21 83.9716 541.21C84.8068 541.21 85.4744 541.037 85.9744 540.69C86.4744 540.338 86.7244 539.909 86.7244 539.403C86.7244 538.994 86.571 538.651 86.2642 538.372C85.9631 538.094 85.5 537.884 84.875 537.741L82.6591 537.256C81.4375 536.977 80.5341 536.534 79.9489 535.926C79.3693 535.318 79.0795 534.548 79.0795 533.616C79.0795 532.844 79.2955 532.168 79.7273 531.588C80.1591 531.009 80.7557 530.557 81.517 530.233C82.2784 529.903 83.1506 529.739 84.1335 529.739C85.5483 529.739 86.6619 530.045 87.4744 530.659C88.2869 531.267 88.8239 532.082 89.0852 533.105ZM95.9524 543.29C95.1229 543.29 94.3729 543.136 93.7024 542.83C93.032 542.517 92.5007 542.065 92.1087 541.474C91.7223 540.884 91.5291 540.159 91.5291 539.301C91.5291 538.562 91.6712 537.955 91.9553 537.477C92.2393 537 92.6229 536.622 93.1058 536.344C93.5888 536.065 94.1286 535.855 94.7251 535.713C95.3217 535.571 95.9297 535.463 96.549 535.389C97.3331 535.298 97.9695 535.224 98.4581 535.168C98.9467 535.105 99.3018 535.006 99.5234 534.869C99.745 534.733 99.8558 534.511 99.8558 534.205V534.145C99.8558 533.401 99.6456 532.824 99.2251 532.415C98.8104 532.006 98.1911 531.801 97.3672 531.801C96.5092 531.801 95.8331 531.991 95.3388 532.372C94.8501 532.747 94.5121 533.165 94.3246 533.625L91.9297 533.08C92.2138 532.284 92.6286 531.642 93.174 531.153C93.7251 530.659 94.3587 530.301 95.0746 530.08C95.7905 529.852 96.5433 529.739 97.3331 529.739C97.8558 529.739 98.4098 529.801 98.995 529.926C99.5859 530.045 100.137 530.267 100.648 530.591C101.165 530.915 101.589 531.378 101.918 531.98C102.248 532.577 102.413 533.352 102.413 534.307V543H99.924V541.21H99.8217C99.657 541.54 99.4098 541.864 99.0803 542.182C98.7507 542.5 98.3274 542.764 97.8104 542.974C97.2933 543.185 96.674 543.29 95.9524 543.29ZM96.5064 541.244C97.2109 541.244 97.8132 541.105 98.3132 540.827C98.8189 540.548 99.2024 540.185 99.4638 539.736C99.7308 539.281 99.8643 538.795 99.8643 538.278V536.591C99.7734 536.682 99.5973 536.767 99.3359 536.847C99.0803 536.92 98.7876 536.986 98.4581 537.043C98.1286 537.094 97.8075 537.142 97.495 537.188C97.1825 537.227 96.9212 537.261 96.7109 537.29C96.2166 537.352 95.7649 537.457 95.3558 537.605C94.9524 537.753 94.6286 537.966 94.3842 538.244C94.1456 538.517 94.0263 538.881 94.0263 539.335C94.0263 539.966 94.2592 540.443 94.7251 540.767C95.1911 541.085 95.7848 541.244 96.5064 541.244ZM105.807 547.909V529.909H108.295V532.031H108.509C108.656 531.759 108.869 531.443 109.148 531.085C109.426 530.727 109.813 530.415 110.307 530.148C110.801 529.875 111.455 529.739 112.267 529.739C113.324 529.739 114.267 530.006 115.097 530.54C115.926 531.074 116.577 531.844 117.048 532.849C117.526 533.855 117.764 535.065 117.764 536.48C117.764 537.895 117.528 539.108 117.057 540.119C116.585 541.125 115.938 541.901 115.114 542.446C114.29 542.986 113.349 543.256 112.293 543.256C111.497 543.256 110.847 543.122 110.341 542.855C109.841 542.588 109.449 542.276 109.165 541.918C108.881 541.56 108.662 541.241 108.509 540.963H108.355V547.909H105.807ZM108.304 536.455C108.304 537.375 108.438 538.182 108.705 538.875C108.972 539.568 109.358 540.111 109.864 540.503C110.369 540.889 110.989 541.082 111.722 541.082C112.483 541.082 113.119 540.881 113.631 540.477C114.142 540.068 114.528 539.514 114.79 538.815C115.057 538.116 115.19 537.33 115.19 536.455C115.19 535.591 115.06 534.815 114.798 534.128C114.543 533.44 114.156 532.898 113.639 532.5C113.128 532.102 112.489 531.903 111.722 531.903C110.983 531.903 110.358 532.094 109.847 532.474C109.341 532.855 108.957 533.386 108.696 534.068C108.435 534.75 108.304 535.545 108.304 536.455ZM120.619 547.909V529.909H123.108V532.031H123.321C123.469 531.759 123.682 531.443 123.96 531.085C124.239 530.727 124.625 530.415 125.119 530.148C125.614 529.875 126.267 529.739 127.08 529.739C128.136 529.739 129.08 530.006 129.909 530.54C130.739 531.074 131.389 531.844 131.861 532.849C132.338 533.855 132.577 535.065 132.577 536.48C132.577 537.895 132.341 539.108 131.869 540.119C131.398 541.125 130.75 541.901 129.926 542.446C129.102 542.986 128.162 543.256 127.105 543.256C126.31 543.256 125.659 543.122 125.153 542.855C124.653 542.588 124.261 542.276 123.977 541.918C123.693 541.56 123.474 541.241 123.321 540.963H123.168V547.909H120.619ZM123.116 536.455C123.116 537.375 123.25 538.182 123.517 538.875C123.784 539.568 124.17 540.111 124.676 540.503C125.182 540.889 125.801 541.082 126.534 541.082C127.295 541.082 127.932 540.881 128.443 540.477C128.955 540.068 129.341 539.514 129.602 538.815C129.869 538.116 130.003 537.33 130.003 536.455C130.003 535.591 129.872 534.815 129.611 534.128C129.355 533.44 128.969 532.898 128.452 532.5C127.94 532.102 127.301 531.903 126.534 531.903C125.795 531.903 125.17 532.094 124.659 532.474C124.153 532.855 123.77 533.386 123.509 534.068C123.247 534.75 123.116 535.545 123.116 536.455Z" fill="black"/>
<path d="M0 704H390V753H0V704Z" fill="#BFBFBF"/>
<path d="M30.8278 725.06C30.663 724.543 30.4414 724.08 30.163 723.67C29.8903 723.256 29.5636 722.903 29.1829 722.614C28.8022 722.318 28.3675 722.094 27.8789 721.94C27.396 721.787 26.8647 721.71 26.2852 721.71C25.3022 721.71 24.4158 721.963 23.6261 722.469C22.8363 722.974 22.2113 723.716 21.7511 724.693C21.2965 725.665 21.0692 726.855 21.0692 728.264C21.0692 729.679 21.2994 730.875 21.7596 731.852C22.2198 732.83 22.8505 733.571 23.6516 734.077C24.4528 734.582 25.3647 734.835 26.3874 734.835C27.3363 734.835 28.163 734.642 28.8675 734.256C29.5778 733.869 30.1261 733.324 30.5124 732.619C30.9045 731.909 31.1005 731.074 31.1005 730.114L31.7823 730.241H26.788V728.068H33.6488V730.054C33.6488 731.52 33.3363 732.793 32.7113 733.872C32.092 734.946 31.234 735.776 30.1374 736.361C29.0465 736.946 27.7965 737.239 26.3874 737.239C24.8079 737.239 23.4215 736.875 22.2283 736.148C21.0408 735.42 20.1147 734.389 19.4499 733.054C18.7852 731.713 18.4528 730.122 18.4528 728.281C18.4528 726.889 18.646 725.639 19.0323 724.531C19.4187 723.423 19.9613 722.483 20.6602 721.71C21.3647 720.932 22.1914 720.338 23.1403 719.929C24.0948 719.514 25.1374 719.307 26.2681 719.307C27.2113 719.307 28.0891 719.446 28.9016 719.724C29.7198 720.003 30.4471 720.398 31.0835 720.909C31.7255 721.42 32.2567 722.028 32.6772 722.733C33.0977 723.432 33.3817 724.207 33.5295 725.06H30.8278ZM36.7873 737V723.909H39.2333V726.04H39.3952C39.668 725.318 40.114 724.756 40.7333 724.352C41.3526 723.943 42.0941 723.739 42.9577 723.739C43.8327 723.739 44.5657 723.943 45.1566 724.352C45.7532 724.761 46.1935 725.324 46.4776 726.04H46.614C46.9265 725.341 47.4237 724.784 48.1055 724.369C48.7873 723.949 49.5998 723.739 50.543 723.739C51.7305 723.739 52.6992 724.111 53.4492 724.855C54.2049 725.599 54.5827 726.722 54.5827 728.222V737H52.0344V728.46C52.0344 727.574 51.793 726.932 51.31 726.534C50.8271 726.136 50.2504 725.938 49.5799 725.938C48.7504 725.938 48.1055 726.193 47.6452 726.705C47.185 727.21 46.9549 727.861 46.9549 728.656V737H44.4151V728.298C44.4151 727.588 44.1935 727.017 43.7504 726.585C43.3072 726.153 42.7305 725.938 42.0202 725.938C41.5373 725.938 41.0913 726.065 40.6822 726.321C40.2788 726.571 39.9521 726.92 39.7021 727.369C39.4577 727.818 39.3356 728.338 39.3356 728.929V737H36.7873ZM61.8079 737.29C60.9783 737.29 60.2283 737.136 59.5579 736.83C58.8874 736.517 58.3562 736.065 57.9641 735.474C57.5778 734.884 57.3846 734.159 57.3846 733.301C57.3846 732.562 57.5266 731.955 57.8107 731.477C58.0948 731 58.4783 730.622 58.9613 730.344C59.4442 730.065 59.984 729.855 60.5806 729.713C61.1772 729.571 61.7852 729.463 62.4045 729.389C63.1886 729.298 63.8249 729.224 64.3136 729.168C64.8022 729.105 65.1573 729.006 65.3789 728.869C65.6005 728.733 65.7113 728.511 65.7113 728.205V728.145C65.7113 727.401 65.5011 726.824 65.0806 726.415C64.6658 726.006 64.0465 725.801 63.2227 725.801C62.3647 725.801 61.6886 725.991 61.1942 726.372C60.7056 726.747 60.3675 727.165 60.18 727.625L57.7852 727.08C58.0692 726.284 58.484 725.642 59.0295 725.153C59.5806 724.659 60.2141 724.301 60.93 724.08C61.646 723.852 62.3988 723.739 63.1886 723.739C63.7113 723.739 64.2653 723.801 64.8505 723.926C65.4414 724.045 65.9925 724.267 66.5039 724.591C67.021 724.915 67.4442 725.378 67.7738 725.98C68.1033 726.577 68.2681 727.352 68.2681 728.307V737H65.7795V735.21H65.6772C65.5124 735.54 65.2653 735.864 64.9357 736.182C64.6062 736.5 64.1829 736.764 63.6658 736.974C63.1488 737.185 62.5295 737.29 61.8079 737.29ZM62.3619 735.244C63.0664 735.244 63.6687 735.105 64.1687 734.827C64.6744 734.548 65.0579 734.185 65.3192 733.736C65.5863 733.281 65.7198 732.795 65.7198 732.278V730.591C65.6289 730.682 65.4528 730.767 65.1914 730.847C64.9357 730.92 64.6431 730.986 64.3136 731.043C63.984 731.094 63.663 731.142 63.3505 731.188C63.038 731.227 62.7766 731.261 62.5664 731.29C62.0721 731.352 61.6204 731.457 61.2113 731.605C60.8079 731.753 60.484 731.966 60.2397 732.244C60.0011 732.517 59.8817 732.881 59.8817 733.335C59.8817 733.966 60.1147 734.443 60.5806 734.767C61.0465 735.085 61.6403 735.244 62.3619 735.244ZM71.6623 737V723.909H74.2106V737H71.6623ZM72.9492 721.889C72.506 721.889 72.1254 721.741 71.8072 721.446C71.4947 721.145 71.3384 720.787 71.3384 720.372C71.3384 719.952 71.4947 719.594 71.8072 719.298C72.1254 718.997 72.506 718.847 72.9492 718.847C73.3924 718.847 73.7702 718.997 74.0827 719.298C74.4009 719.594 74.56 719.952 74.56 720.372C74.56 720.787 74.4009 721.145 74.0827 721.446C73.7702 721.741 73.3924 721.889 72.9492 721.889ZM80.1871 719.545V737H77.6388V719.545H80.1871Z" fill="black"/>
<path d="M1 606H391V655H1V606Z" fill="#BFBFBF"/>
<path d="M28.5977 626.131C28.5067 625.324 28.1317 624.699 27.4727 624.256C26.8136 623.807 25.984 623.582 24.984 623.582C24.2681 623.582 23.6488 623.696 23.1261 623.923C22.6033 624.145 22.1971 624.452 21.9073 624.844C21.6232 625.23 21.4812 625.67 21.4812 626.165C21.4812 626.58 21.5778 626.937 21.771 627.239C21.9698 627.54 22.2283 627.793 22.5465 627.997C22.8704 628.196 23.217 628.364 23.5863 628.5C23.9556 628.631 24.3107 628.739 24.6516 628.824L26.3562 629.267C26.913 629.403 27.484 629.588 28.0692 629.821C28.6545 630.054 29.1971 630.361 29.6971 630.741C30.1971 631.122 30.6005 631.594 30.9073 632.156C31.2198 632.719 31.3761 633.392 31.3761 634.176C31.3761 635.165 31.1204 636.043 30.609 636.81C30.1033 637.577 29.3675 638.182 28.4016 638.625C27.4414 639.068 26.2795 639.29 24.9158 639.29C23.609 639.29 22.4783 639.082 21.5238 638.668C20.5692 638.253 19.8221 637.665 19.2823 636.903C18.7425 636.136 18.4442 635.227 18.3874 634.176H21.0295C21.0806 634.807 21.2852 635.332 21.6431 635.753C22.0067 636.168 22.4698 636.477 23.0323 636.682C23.6005 636.881 24.2227 636.98 24.8988 636.98C25.6431 636.98 26.305 636.864 26.8846 636.631C27.4698 636.392 27.93 636.062 28.2653 635.642C28.6005 635.216 28.7681 634.719 28.7681 634.151C28.7681 633.634 28.6204 633.21 28.3249 632.881C28.0352 632.551 27.6403 632.278 27.1403 632.062C26.646 631.847 26.0863 631.656 25.4613 631.491L23.3988 630.929C22.0011 630.548 20.8931 629.989 20.0749 629.25C19.2624 628.511 18.8562 627.534 18.8562 626.318C18.8562 625.312 19.1289 624.435 19.6744 623.685C20.2198 622.935 20.9585 622.352 21.8903 621.938C22.8221 621.517 23.8732 621.307 25.0437 621.307C26.2255 621.307 27.2681 621.514 28.1715 621.929C29.0806 622.344 29.7965 622.915 30.3192 623.642C30.842 624.364 31.1147 625.193 31.1374 626.131H28.5977ZM39.8327 639.264C38.6055 639.264 37.5344 638.983 36.6197 638.42C35.7049 637.858 34.9947 637.071 34.489 636.06C33.9833 635.048 33.7305 633.866 33.7305 632.514C33.7305 631.156 33.9833 629.969 34.489 628.952C34.9947 627.935 35.7049 627.145 36.6197 626.582C37.5344 626.02 38.6055 625.739 39.8327 625.739C41.06 625.739 42.131 626.02 43.0458 626.582C43.9606 627.145 44.6708 627.935 45.1765 628.952C45.6822 629.969 45.935 631.156 45.935 632.514C45.935 633.866 45.6822 635.048 45.1765 636.06C44.6708 637.071 43.9606 637.858 43.0458 638.42C42.131 638.983 41.06 639.264 39.8327 639.264ZM39.8413 637.125C40.6367 637.125 41.2958 636.915 41.8185 636.494C42.3413 636.074 42.7276 635.514 42.9776 634.815C43.2333 634.116 43.3612 633.347 43.3612 632.506C43.3612 631.67 43.2333 630.903 42.9776 630.205C42.7276 629.5 42.3413 628.935 41.8185 628.509C41.2958 628.082 40.6367 627.869 39.8413 627.869C39.0401 627.869 38.3754 628.082 37.8469 628.509C37.3242 628.935 36.935 629.5 36.6793 630.205C36.4293 630.903 36.3043 631.67 36.3043 632.506C36.3043 633.347 36.4293 634.116 36.6793 634.815C36.935 635.514 37.3242 636.074 37.8469 636.494C38.3754 636.915 39.0401 637.125 39.8413 637.125ZM48.7795 639V625.909H51.3278V639H48.7795ZM50.0664 623.889C49.6232 623.889 49.2425 623.741 48.9244 623.446C48.6119 623.145 48.4556 622.787 48.4556 622.372C48.4556 621.952 48.6119 621.594 48.9244 621.298C49.2425 620.997 49.6232 620.847 50.0664 620.847C50.5096 620.847 50.8874 620.997 51.1999 621.298C51.5181 621.594 51.6772 621.952 51.6772 622.372C51.6772 622.787 51.5181 623.145 51.1999 623.446C50.8874 623.741 50.5096 623.889 50.0664 623.889ZM60.2447 644.182C59.2049 644.182 58.31 644.045 57.56 643.773C56.8157 643.5 56.2077 643.139 55.7362 642.69C55.2646 642.241 54.9123 641.75 54.6793 641.216L56.8697 640.312C57.0231 640.562 57.2276 640.827 57.4833 641.105C57.7447 641.389 58.0969 641.631 58.5401 641.83C58.989 642.028 59.5657 642.128 60.2702 642.128C61.2362 642.128 62.0344 641.892 62.6651 641.42C63.2958 640.955 63.6112 640.21 63.6112 639.188V636.614H63.4492C63.2958 636.892 63.0742 637.202 62.7844 637.543C62.5004 637.884 62.1083 638.179 61.6083 638.429C61.1083 638.679 60.4577 638.804 59.6566 638.804C58.6225 638.804 57.6907 638.562 56.8612 638.08C56.0373 637.591 55.3839 636.872 54.9009 635.923C54.4237 634.969 54.185 633.795 54.185 632.403C54.185 631.011 54.4208 629.818 54.8924 628.824C55.3697 627.83 56.0231 627.068 56.8526 626.54C57.6822 626.006 58.6225 625.739 59.6737 625.739C60.4862 625.739 61.1424 625.875 61.6424 626.148C62.1424 626.415 62.5316 626.727 62.81 627.085C63.0941 627.443 63.3129 627.759 63.4663 628.031H63.6538V625.909H66.1509V639.29C66.1509 640.415 65.8896 641.338 65.3668 642.06C64.8441 642.781 64.1367 643.315 63.2447 643.662C62.3583 644.009 61.3583 644.182 60.2447 644.182ZM60.2191 636.69C60.9521 636.69 61.5714 636.52 62.0771 636.179C62.5884 635.832 62.9748 635.338 63.2362 634.696C63.5032 634.048 63.6367 633.273 63.6367 632.369C63.6367 631.489 63.506 630.713 63.2447 630.043C62.9833 629.372 62.5998 628.849 62.0941 628.474C61.5884 628.094 60.9634 627.903 60.2191 627.903C59.4521 627.903 58.8129 628.102 58.3015 628.5C57.7901 628.892 57.4038 629.426 57.1424 630.102C56.8867 630.778 56.7589 631.534 56.7589 632.369C56.7589 633.227 56.8896 633.98 57.1509 634.628C57.4123 635.276 57.7987 635.781 58.31 636.145C58.8271 636.509 59.4634 636.69 60.2191 636.69ZM72.1168 631.227V639H69.5685V625.909H72.0146V628.04H72.1765C72.4776 627.347 72.9492 626.79 73.5913 626.369C74.239 625.949 75.0543 625.739 76.0373 625.739C76.9293 625.739 77.7106 625.926 78.381 626.301C79.0515 626.67 79.5714 627.222 79.9407 627.955C80.31 628.687 80.4947 629.594 80.4947 630.673V639H77.9464V630.98C77.9464 630.031 77.6992 629.29 77.2049 628.756C76.7106 628.216 76.0316 627.946 75.168 627.946C74.5771 627.946 74.0515 628.074 73.5913 628.33C73.1367 628.585 72.7759 628.96 72.5089 629.455C72.2475 629.943 72.1168 630.534 72.1168 631.227ZM87.7219 639.29C86.8924 639.29 86.1424 639.136 85.4719 638.83C84.8015 638.517 84.2702 638.065 83.8782 637.474C83.4918 636.884 83.2987 636.159 83.2987 635.301C83.2987 634.562 83.4407 633.955 83.7248 633.477C84.0089 633 84.3924 632.622 84.8754 632.344C85.3583 632.065 85.8981 631.855 86.4947 631.713C87.0913 631.571 87.6992 631.463 88.3185 631.389C89.1026 631.298 89.739 631.224 90.2276 631.168C90.7163 631.105 91.0714 631.006 91.293 630.869C91.5146 630.733 91.6254 630.511 91.6254 630.205V630.145C91.6254 629.401 91.4151 628.824 90.9947 628.415C90.5799 628.006 89.9606 627.801 89.1367 627.801C88.2788 627.801 87.6026 627.991 87.1083 628.372C86.6197 628.747 86.2816 629.165 86.0941 629.625L83.6992 629.08C83.9833 628.284 84.3981 627.642 84.9435 627.153C85.4947 626.659 86.1282 626.301 86.8441 626.08C87.56 625.852 88.3129 625.739 89.1026 625.739C89.6254 625.739 90.1793 625.801 90.7646 625.926C91.3555 626.045 91.9066 626.267 92.418 626.591C92.935 626.915 93.3583 627.378 93.6879 627.98C94.0174 628.577 94.1822 629.352 94.1822 630.307V639H91.6935V637.21H91.5913C91.4265 637.54 91.1793 637.864 90.8498 638.182C90.5202 638.5 90.0969 638.764 89.5799 638.974C89.0629 639.185 88.4435 639.29 87.7219 639.29ZM88.2759 637.244C88.9805 637.244 89.5827 637.105 90.0827 636.827C90.5884 636.548 90.9719 636.185 91.2333 635.736C91.5004 635.281 91.6339 634.795 91.6339 634.278V632.591C91.543 632.682 91.3668 632.767 91.1055 632.847C90.8498 632.92 90.5572 632.986 90.2276 633.043C89.8981 633.094 89.5771 633.142 89.2646 633.188C88.9521 633.227 88.6907 633.261 88.4805 633.29C87.9862 633.352 87.5344 633.457 87.1254 633.605C86.7219 633.753 86.3981 633.966 86.1538 634.244C85.9151 634.517 85.7958 634.881 85.7958 635.335C85.7958 635.966 86.0288 636.443 86.4947 636.767C86.9606 637.085 87.5543 637.244 88.2759 637.244ZM100.125 621.545V639H97.5763V621.545H100.125Z" fill="black"/>
<path d="M1 558H391V607H1V558Z" fill="#858585"/>
<path d="M18.9684 573.545H22.1644L27.7212 587.114H27.9258L33.4826 573.545H36.6786V591H34.1729V578.369H34.011L28.8633 590.974H26.7837L21.636 578.361H21.4741V591H18.9684V573.545ZM45.945 591.264C44.6552 591.264 43.5444 590.989 42.6126 590.438C41.6864 589.881 40.9705 589.099 40.4648 588.094C39.9648 587.082 39.7148 585.898 39.7148 584.54C39.7148 583.199 39.9648 582.017 40.4648 580.994C40.9705 579.972 41.6751 579.173 42.5785 578.599C43.4876 578.026 44.5501 577.739 45.766 577.739C46.5046 577.739 47.2205 577.861 47.9137 578.105C48.6069 578.349 49.229 578.733 49.7802 579.256C50.3313 579.778 50.766 580.457 51.0842 581.293C51.4023 582.122 51.5614 583.131 51.5614 584.318V585.222H41.1552V583.312H49.0643C49.0643 582.642 48.9279 582.048 48.6552 581.531C48.3825 581.009 47.9989 580.597 47.5046 580.295C47.016 579.994 46.4421 579.844 45.783 579.844C45.0671 579.844 44.4421 580.02 43.908 580.372C43.3796 580.719 42.9705 581.173 42.6808 581.736C42.3967 582.293 42.2546 582.898 42.2546 583.551V585.043C42.2546 585.918 42.408 586.662 42.7148 587.276C43.0273 587.889 43.462 588.358 44.0188 588.682C44.5756 589 45.2262 589.159 45.9705 589.159C46.4535 589.159 46.8938 589.091 47.2915 588.955C47.6893 588.812 48.033 588.602 48.3228 588.324C48.6126 588.045 48.8342 587.702 48.9876 587.293L51.3995 587.727C51.2063 588.437 50.8597 589.06 50.3597 589.594C49.8654 590.122 49.2433 590.534 48.4933 590.83C47.7489 591.119 46.8995 591.264 45.945 591.264ZM64.1985 581.105L61.8888 581.514C61.7923 581.219 61.6388 580.937 61.4286 580.67C61.2241 580.403 60.9457 580.185 60.5934 580.014C60.2411 579.844 59.8008 579.759 59.2724 579.759C58.5508 579.759 57.9485 579.92 57.4656 580.244C56.9826 580.562 56.7411 580.974 56.7411 581.48C56.7411 581.918 56.9031 582.27 57.2269 582.537C57.5508 582.804 58.0735 583.023 58.7951 583.193L60.8746 583.67C62.0792 583.949 62.9769 584.378 63.5678 584.957C64.1587 585.537 64.4542 586.29 64.4542 587.216C64.4542 588 64.2269 588.699 63.7724 589.312C63.3235 589.92 62.6957 590.398 61.8888 590.744C61.0877 591.091 60.1587 591.264 59.1019 591.264C57.636 591.264 56.44 590.952 55.5138 590.327C54.5877 589.696 54.0195 588.801 53.8093 587.642L56.2724 587.267C56.4258 587.909 56.7411 588.395 57.2184 588.724C57.6957 589.048 58.3178 589.21 59.0849 589.21C59.9201 589.21 60.5877 589.037 61.0877 588.69C61.5877 588.338 61.8377 587.909 61.8377 587.403C61.8377 586.994 61.6843 586.651 61.3775 586.372C61.0763 586.094 60.6133 585.884 59.9883 585.741L57.7724 585.256C56.5508 584.977 55.6474 584.534 55.0621 583.926C54.4826 583.318 54.1928 582.548 54.1928 581.616C54.1928 580.844 54.4087 580.168 54.8406 579.588C55.2724 579.009 55.869 578.557 56.6303 578.233C57.3917 577.903 58.2638 577.739 59.2468 577.739C60.6616 577.739 61.7752 578.045 62.5877 578.659C63.4002 579.267 63.9371 580.082 64.1985 581.105ZM77.0657 581.105L74.756 581.514C74.6594 581.219 74.506 580.937 74.2958 580.67C74.0913 580.403 73.8129 580.185 73.4606 580.014C73.1083 579.844 72.668 579.759 72.1396 579.759C71.418 579.759 70.8157 579.92 70.3327 580.244C69.8498 580.562 69.6083 580.974 69.6083 581.48C69.6083 581.918 69.7702 582.27 70.0941 582.537C70.418 582.804 70.9407 583.023 71.6623 583.193L73.7418 583.67C74.9464 583.949 75.8441 584.378 76.435 584.957C77.0259 585.537 77.3214 586.29 77.3214 587.216C77.3214 588 77.0941 588.699 76.6396 589.312C76.1907 589.92 75.5629 590.398 74.756 590.744C73.9549 591.091 73.0259 591.264 71.9691 591.264C70.5032 591.264 69.3072 590.952 68.381 590.327C67.4549 589.696 66.8867 588.801 66.6765 587.642L69.1396 587.267C69.293 587.909 69.6083 588.395 70.0856 588.724C70.5629 589.048 71.185 589.21 71.9521 589.21C72.7873 589.21 73.4549 589.037 73.9549 588.69C74.4549 588.338 74.7049 587.909 74.7049 587.403C74.7049 586.994 74.5515 586.651 74.2447 586.372C73.9435 586.094 73.4805 585.884 72.8555 585.741L70.6396 585.256C69.418 584.977 68.5146 584.534 67.9293 583.926C67.3498 583.318 67.06 582.548 67.06 581.616C67.06 580.844 67.2759 580.168 67.7077 579.588C68.1396 579.009 68.7362 578.557 69.4975 578.233C70.2589 577.903 71.131 577.739 72.114 577.739C73.5288 577.739 74.6424 578.045 75.4549 578.659C76.2674 579.267 76.8043 580.082 77.0657 581.105ZM85.7653 591.264C84.4755 591.264 83.3647 590.989 82.4329 590.438C81.5067 589.881 80.7908 589.099 80.2852 588.094C79.7852 587.082 79.5352 585.898 79.5352 584.54C79.5352 583.199 79.7852 582.017 80.2852 580.994C80.7908 579.972 81.4954 579.173 82.3988 578.599C83.3079 578.026 84.3704 577.739 85.5863 577.739C86.3249 577.739 87.0408 577.861 87.734 578.105C88.4272 578.349 89.0494 578.733 89.6005 579.256C90.1516 579.778 90.5863 580.457 90.9045 581.293C91.2227 582.122 91.3817 583.131 91.3817 584.318V585.222H80.9755V583.312H88.8846C88.8846 582.642 88.7482 582.048 88.4755 581.531C88.2028 581.009 87.8192 580.597 87.3249 580.295C86.8363 579.994 86.2624 579.844 85.6033 579.844C84.8874 579.844 84.2624 580.02 83.7283 580.372C83.1999 580.719 82.7908 581.173 82.5011 581.736C82.217 582.293 82.0749 582.898 82.0749 583.551V585.043C82.0749 585.918 82.2283 586.662 82.5352 587.276C82.8477 587.889 83.2823 588.358 83.8391 588.682C84.396 589 85.0465 589.159 85.7908 589.159C86.2738 589.159 86.7141 589.091 87.1119 588.955C87.5096 588.812 87.8533 588.602 88.1431 588.324C88.4329 588.045 88.6545 587.702 88.8079 587.293L91.2198 587.727C91.0266 588.437 90.68 589.06 90.18 589.594C89.6857 590.122 89.0636 590.534 88.3136 590.83C87.5692 591.119 86.7198 591.264 85.7653 591.264ZM96.7575 583.227V591H94.2092V577.909H96.6552V580.04H96.8171C97.1183 579.347 97.5898 578.79 98.2319 578.369C98.8796 577.949 99.695 577.739 100.678 577.739C101.57 577.739 102.351 577.926 103.022 578.301C103.692 578.67 104.212 579.222 104.581 579.955C104.951 580.687 105.135 581.594 105.135 582.673V591H102.587V582.98C102.587 582.031 102.34 581.29 101.846 580.756C101.351 580.216 100.672 579.946 99.8086 579.946C99.2177 579.946 98.6921 580.074 98.2319 580.33C97.7773 580.585 97.4165 580.96 97.1495 581.455C96.8881 581.943 96.7575 582.534 96.7575 583.227ZM114.042 596.182C113.002 596.182 112.107 596.045 111.357 595.773C110.613 595.5 110.005 595.139 109.533 594.69C109.061 594.241 108.709 593.75 108.476 593.216L110.667 592.312C110.82 592.562 111.025 592.827 111.28 593.105C111.542 593.389 111.894 593.631 112.337 593.83C112.786 594.028 113.363 594.128 114.067 594.128C115.033 594.128 115.831 593.892 116.462 593.42C117.093 592.955 117.408 592.21 117.408 591.188V588.614H117.246C117.093 588.892 116.871 589.202 116.581 589.543C116.297 589.884 115.905 590.179 115.405 590.429C114.905 590.679 114.255 590.804 113.453 590.804C112.419 590.804 111.488 590.562 110.658 590.08C109.834 589.591 109.181 588.872 108.698 587.923C108.221 586.969 107.982 585.795 107.982 584.403C107.982 583.011 108.218 581.818 108.689 580.824C109.167 579.83 109.82 579.068 110.65 578.54C111.479 578.006 112.419 577.739 113.471 577.739C114.283 577.739 114.939 577.875 115.439 578.148C115.939 578.415 116.328 578.727 116.607 579.085C116.891 579.443 117.11 579.759 117.263 580.031H117.451V577.909H119.948V591.29C119.948 592.415 119.686 593.338 119.164 594.06C118.641 594.781 117.934 595.315 117.042 595.662C116.155 596.009 115.155 596.182 114.042 596.182ZM114.016 588.69C114.749 588.69 115.368 588.52 115.874 588.179C116.385 587.832 116.772 587.338 117.033 586.696C117.3 586.048 117.434 585.273 117.434 584.369C117.434 583.489 117.303 582.713 117.042 582.043C116.78 581.372 116.397 580.849 115.891 580.474C115.385 580.094 114.76 579.903 114.016 579.903C113.249 579.903 112.61 580.102 112.098 580.5C111.587 580.892 111.201 581.426 110.939 582.102C110.684 582.778 110.556 583.534 110.556 584.369C110.556 585.227 110.686 585.98 110.948 586.628C111.209 587.276 111.596 587.781 112.107 588.145C112.624 588.509 113.26 588.69 114.016 588.69ZM129.007 591.264C127.718 591.264 126.607 590.989 125.675 590.438C124.749 589.881 124.033 589.099 123.527 588.094C123.027 587.082 122.777 585.898 122.777 584.54C122.777 583.199 123.027 582.017 123.527 580.994C124.033 579.972 124.738 579.173 125.641 578.599C126.55 578.026 127.613 577.739 128.828 577.739C129.567 577.739 130.283 577.861 130.976 578.105C131.669 578.349 132.292 578.733 132.843 579.256C133.394 579.778 133.828 580.457 134.147 581.293C134.465 582.122 134.624 583.131 134.624 584.318V585.222H124.218V583.312H132.127C132.127 582.642 131.99 582.048 131.718 581.531C131.445 581.009 131.061 580.597 130.567 580.295C130.078 579.994 129.505 579.844 128.846 579.844C128.13 579.844 127.505 580.02 126.971 580.372C126.442 580.719 126.033 581.173 125.743 581.736C125.459 582.293 125.317 582.898 125.317 583.551V585.043C125.317 585.918 125.471 586.662 125.777 587.276C126.09 587.889 126.525 588.358 127.081 588.682C127.638 589 128.289 589.159 129.033 589.159C129.516 589.159 129.956 589.091 130.354 588.955C130.752 588.812 131.096 588.602 131.385 588.324C131.675 588.045 131.897 587.702 132.05 587.293L134.462 587.727C134.269 588.437 133.922 589.06 133.422 589.594C132.928 590.122 132.306 590.534 131.556 590.83C130.811 591.119 129.962 591.264 129.007 591.264ZM137.451 591V577.909H139.914V579.989H140.051C140.289 579.284 140.71 578.73 141.312 578.327C141.92 577.918 142.608 577.713 143.375 577.713C143.534 577.713 143.721 577.719 143.937 577.73C144.159 577.741 144.332 577.756 144.457 577.773V580.21C144.355 580.182 144.173 580.151 143.912 580.116C143.65 580.077 143.389 580.057 143.127 580.057C142.525 580.057 141.988 580.185 141.517 580.44C141.051 580.69 140.681 581.04 140.409 581.489C140.136 581.932 140 582.437 140 583.006V591H137.451Z" fill="black"/>
<path d="M1 655H391V704H1V655Z" fill="#858585"/>
<path d="M18.092 671.812V669.545H31.6005V671.812H26.1545V687H23.5295V671.812H18.092ZM35.7191 687L31.8668 673.909H34.5004L37.0657 683.523H37.1935L39.7674 673.909H42.4009L44.9577 683.48H45.0856L47.6339 673.909H50.2674L46.4237 687H43.8242L41.1651 677.548H40.9691L38.31 687H35.7191ZM52.6857 687V673.909H55.234V687H52.6857ZM53.9727 671.889C53.5295 671.889 53.1488 671.741 52.8306 671.446C52.5181 671.145 52.3619 670.787 52.3619 670.372C52.3619 669.952 52.5181 669.594 52.8306 669.298C53.1488 668.997 53.5295 668.847 53.9727 668.847C54.4158 668.847 54.7937 668.997 55.1062 669.298C55.4244 669.594 55.5835 669.952 55.5835 670.372C55.5835 670.787 55.4244 671.145 55.1062 671.446C54.7937 671.741 54.4158 671.889 53.9727 671.889ZM64.7731 673.909V675.955H57.6225V673.909H64.7731ZM59.5401 670.773H62.0884V683.156C62.0884 683.651 62.1623 684.023 62.31 684.273C62.4577 684.517 62.6481 684.685 62.881 684.776C63.1197 684.861 63.3782 684.903 63.6566 684.903C63.8612 684.903 64.0401 684.889 64.1935 684.861C64.3469 684.832 64.4663 684.81 64.5515 684.793L65.0117 686.898C64.864 686.955 64.6538 687.011 64.381 687.068C64.1083 687.131 63.7674 687.165 63.3583 687.17C62.6879 687.182 62.0629 687.062 61.4833 686.812C60.9038 686.562 60.435 686.176 60.0771 685.653C59.7191 685.131 59.5401 684.474 59.5401 683.685V670.773ZM73.7028 673.909V675.955H66.5522V673.909H73.7028ZM68.4698 670.773H71.0181V683.156C71.0181 683.651 71.092 684.023 71.2397 684.273C71.3874 684.517 71.5778 684.685 71.8107 684.776C72.0494 684.861 72.3079 684.903 72.5863 684.903C72.7908 684.903 72.9698 684.889 73.1232 684.861C73.2766 684.832 73.396 684.81 73.4812 684.793L73.9414 686.898C73.7937 686.955 73.5835 687.011 73.3107 687.068C73.038 687.131 72.6971 687.165 72.288 687.17C71.6175 687.182 70.9925 687.062 70.413 686.812C69.8335 686.562 69.3647 686.176 69.0067 685.653C68.6488 685.131 68.4698 684.474 68.4698 683.685V670.773ZM82.0231 687.264C80.7333 687.264 79.6225 686.989 78.6907 686.438C77.7646 685.881 77.0487 685.099 76.543 684.094C76.043 683.082 75.793 681.898 75.793 680.54C75.793 679.199 76.043 678.017 76.543 676.994C77.0487 675.972 77.7532 675.173 78.6566 674.599C79.5657 674.026 80.6282 673.739 81.8441 673.739C82.5827 673.739 83.2987 673.861 83.9918 674.105C84.685 674.349 85.3072 674.733 85.8583 675.256C86.4094 675.778 86.8441 676.457 87.1623 677.293C87.4805 678.122 87.6396 679.131 87.6396 680.318V681.222H77.2333V679.312H85.1424C85.1424 678.642 85.006 678.048 84.7333 677.531C84.4606 677.009 84.0771 676.597 83.5827 676.295C83.0941 675.994 82.5202 675.844 81.8612 675.844C81.1452 675.844 80.5202 676.02 79.9862 676.372C79.4577 676.719 79.0487 677.173 78.7589 677.736C78.4748 678.293 78.3327 678.898 78.3327 679.551V681.043C78.3327 681.918 78.4862 682.662 78.793 683.276C79.1055 683.889 79.5401 684.358 80.0969 684.682C80.6538 685 81.3043 685.159 82.0487 685.159C82.5316 685.159 82.9719 685.091 83.3697 684.955C83.7674 684.812 84.1112 684.602 84.4009 684.324C84.6907 684.045 84.9123 683.702 85.0657 683.293L87.4776 683.727C87.2844 684.437 86.9379 685.06 86.4379 685.594C85.9435 686.122 85.3214 686.534 84.5714 686.83C83.8271 687.119 82.9776 687.264 82.0231 687.264ZM90.467 687V673.909H92.93V675.989H93.0664C93.305 675.284 93.7255 674.73 94.3278 674.327C94.9357 673.918 95.6232 673.713 96.3903 673.713C96.5494 673.713 96.7369 673.719 96.9528 673.73C97.1744 673.741 97.3477 673.756 97.4727 673.773V676.21C97.3704 676.182 97.1886 676.151 96.9272 676.116C96.6658 676.077 96.4045 676.057 96.1431 676.057C95.5408 676.057 95.0039 676.185 94.5323 676.44C94.0664 676.69 93.6971 677.04 93.4244 677.489C93.1516 677.932 93.0153 678.437 93.0153 679.006V687H90.467Z" fill="black"/>
<path d="M18.1699 166.13C17.39 166.13 17 166.65 17 167.3V242.822C17 243.472 17.5199 243.992 18.1699 243.992H94.9919L120.989 269.989V167.17C120.989 166.39 120.469 166 119.819 166H18.2999L18.1699 166.13Z" fill="black"/>
<path d="M186.278 218.264C185.051 218.264 183.98 217.983 183.065 217.42C182.15 216.858 181.44 216.071 180.934 215.06C180.429 214.048 180.176 212.866 180.176 211.514C180.176 210.156 180.429 208.969 180.934 207.952C181.44 206.935 182.15 206.145 183.065 205.582C183.98 205.02 185.051 204.739 186.278 204.739C187.505 204.739 188.576 205.02 189.491 205.582C190.406 206.145 191.116 206.935 191.622 207.952C192.127 208.969 192.38 210.156 192.38 211.514C192.38 212.866 192.127 214.048 191.622 215.06C191.116 216.071 190.406 216.858 189.491 217.42C188.576 217.983 187.505 218.264 186.278 218.264ZM186.287 216.125C187.082 216.125 187.741 215.915 188.264 215.494C188.787 215.074 189.173 214.514 189.423 213.815C189.679 213.116 189.806 212.347 189.806 211.506C189.806 210.67 189.679 209.903 189.423 209.205C189.173 208.5 188.787 207.935 188.264 207.509C187.741 207.082 187.082 206.869 186.287 206.869C185.485 206.869 184.821 207.082 184.292 207.509C183.77 207.935 183.38 208.5 183.125 209.205C182.875 209.903 182.75 210.67 182.75 211.506C182.75 212.347 182.875 213.116 183.125 213.815C183.38 214.514 183.77 215.074 184.292 215.494C184.821 215.915 185.485 216.125 186.287 216.125ZM197.664 218L193.812 204.909H196.446L199.011 214.523H199.139L201.713 204.909H204.346L206.903 214.48H207.031L209.579 204.909H212.213L208.369 218H205.77L203.11 208.548H202.914L200.255 218H197.664ZM235.684 206.222H233.025C232.923 205.653 232.733 205.153 232.454 204.722C232.176 204.29 231.835 203.923 231.431 203.622C231.028 203.321 230.576 203.094 230.076 202.94C229.582 202.787 229.056 202.71 228.5 202.71C227.494 202.71 226.593 202.963 225.798 203.469C225.008 203.974 224.383 204.716 223.923 205.693C223.468 206.67 223.241 207.864 223.241 209.273C223.241 210.693 223.468 211.892 223.923 212.869C224.383 213.847 225.011 214.585 225.806 215.085C226.602 215.585 227.497 215.835 228.491 215.835C229.042 215.835 229.565 215.761 230.059 215.614C230.559 215.46 231.011 215.236 231.414 214.94C231.818 214.645 232.159 214.284 232.437 213.858C232.721 213.426 232.917 212.932 233.025 212.375L235.684 212.384C235.542 213.241 235.267 214.031 234.858 214.753C234.454 215.469 233.934 216.088 233.298 216.611C232.667 217.128 231.946 217.528 231.133 217.812C230.321 218.097 229.434 218.239 228.474 218.239C226.963 218.239 225.616 217.881 224.434 217.165C223.252 216.443 222.321 215.412 221.639 214.071C220.963 212.73 220.625 211.131 220.625 209.273C220.625 207.409 220.966 205.81 221.647 204.474C222.329 203.134 223.261 202.105 224.443 201.389C225.625 200.668 226.968 200.307 228.474 200.307C229.4 200.307 230.264 200.44 231.065 200.707C231.872 200.969 232.596 201.355 233.238 201.866C233.88 202.372 234.412 202.991 234.832 203.724C235.252 204.452 235.537 205.284 235.684 206.222ZM241.179 210.227V218H238.631V200.545H241.145V207.04H241.307C241.614 206.335 242.083 205.776 242.713 205.361C243.344 204.946 244.168 204.739 245.185 204.739C246.083 204.739 246.867 204.923 247.537 205.293C248.213 205.662 248.736 206.213 249.105 206.946C249.48 207.673 249.668 208.582 249.668 209.673V218H247.12V209.98C247.12 209.02 246.873 208.276 246.378 207.747C245.884 207.213 245.196 206.946 244.316 206.946C243.713 206.946 243.174 207.074 242.696 207.33C242.225 207.585 241.853 207.96 241.58 208.455C241.313 208.943 241.179 209.534 241.179 210.227ZM256.878 218.29C256.049 218.29 255.299 218.136 254.628 217.83C253.958 217.517 253.426 217.065 253.034 216.474C252.648 215.884 252.455 215.159 252.455 214.301C252.455 213.562 252.597 212.955 252.881 212.477C253.165 212 253.549 211.622 254.032 211.344C254.515 211.065 255.054 210.855 255.651 210.713C256.248 210.571 256.855 210.463 257.475 210.389C258.259 210.298 258.895 210.224 259.384 210.168C259.873 210.105 260.228 210.006 260.449 209.869C260.671 209.733 260.782 209.511 260.782 209.205V209.145C260.782 208.401 260.571 207.824 260.151 207.415C259.736 207.006 259.117 206.801 258.293 206.801C257.435 206.801 256.759 206.991 256.265 207.372C255.776 207.747 255.438 208.165 255.25 208.625L252.855 208.08C253.14 207.284 253.554 206.642 254.1 206.153C254.651 205.659 255.284 205.301 256 205.08C256.716 204.852 257.469 204.739 258.259 204.739C258.782 204.739 259.336 204.801 259.921 204.926C260.512 205.045 261.063 205.267 261.574 205.591C262.091 205.915 262.515 206.378 262.844 206.98C263.174 207.577 263.338 208.352 263.338 209.307V218H260.85V216.21H260.748C260.583 216.54 260.336 216.864 260.006 217.182C259.676 217.5 259.253 217.764 258.736 217.974C258.219 218.185 257.6 218.29 256.878 218.29ZM257.432 216.244C258.137 216.244 258.739 216.105 259.239 215.827C259.745 215.548 260.128 215.185 260.39 214.736C260.657 214.281 260.79 213.795 260.79 213.278V211.591C260.699 211.682 260.523 211.767 260.262 211.847C260.006 211.92 259.713 211.986 259.384 212.043C259.054 212.094 258.733 212.142 258.421 212.188C258.108 212.227 257.847 212.261 257.637 212.29C257.142 212.352 256.691 212.457 256.282 212.605C255.878 212.753 255.554 212.966 255.31 213.244C255.071 213.517 254.952 213.881 254.952 214.335C254.952 214.966 255.185 215.443 255.651 215.767C256.117 216.085 256.711 216.244 257.432 216.244ZM272.843 204.909V206.955H265.693V204.909H272.843ZM267.61 201.773H270.159V214.156C270.159 214.651 270.233 215.023 270.38 215.273C270.528 215.517 270.718 215.685 270.951 215.776C271.19 215.861 271.449 215.903 271.727 215.903C271.931 215.903 272.11 215.889 272.264 215.861C272.417 215.832 272.537 215.81 272.622 215.793L273.082 217.898C272.934 217.955 272.724 218.011 272.451 218.068C272.179 218.131 271.838 218.165 271.429 218.17C270.758 218.182 270.133 218.062 269.554 217.812C268.974 217.562 268.505 217.176 268.147 216.653C267.789 216.131 267.61 215.474 267.61 214.685V201.773Z" fill="black"/>
<path d="M75.7475 820H72.9521L79.2333 802.545H82.2759L88.5572 820H85.7617L80.8271 805.716H80.6907L75.7475 820ZM76.2163 813.165H85.2844V815.381H76.2163V813.165ZM96.1509 825.182C95.1112 825.182 94.2163 825.045 93.4663 824.773C92.7219 824.5 92.114 824.139 91.6424 823.69C91.1708 823.241 90.8185 822.75 90.5856 822.216L92.7759 821.312C92.9293 821.562 93.1339 821.827 93.3896 822.105C93.6509 822.389 94.0032 822.631 94.4464 822.83C94.8952 823.028 95.4719 823.128 96.1765 823.128C97.1424 823.128 97.9407 822.892 98.5714 822.42C99.2021 821.955 99.5174 821.21 99.5174 820.188V817.614H99.3555C99.2021 817.892 98.9805 818.202 98.6907 818.543C98.4066 818.884 98.0146 819.179 97.5146 819.429C97.0146 819.679 96.364 819.804 95.5629 819.804C94.5288 819.804 93.5969 819.562 92.7674 819.08C91.9435 818.591 91.2901 817.872 90.8072 816.923C90.3299 815.969 90.0913 814.795 90.0913 813.403C90.0913 812.011 90.3271 810.818 90.7987 809.824C91.2759 808.83 91.9293 808.068 92.7589 807.54C93.5884 807.006 94.5288 806.739 95.5799 806.739C96.3924 806.739 97.0487 806.875 97.5487 807.148C98.0487 807.415 98.4379 807.727 98.7163 808.085C99.0004 808.443 99.2191 808.759 99.3725 809.031H99.56V806.909H102.057V820.29C102.057 821.415 101.796 822.338 101.273 823.06C100.75 823.781 100.043 824.315 99.1509 824.662C98.2646 825.009 97.2646 825.182 96.1509 825.182ZM96.1254 817.69C96.8583 817.69 97.4776 817.52 97.9833 817.179C98.4947 816.832 98.881 816.338 99.1424 815.696C99.4094 815.048 99.543 814.273 99.543 813.369C99.543 812.489 99.4123 811.713 99.1509 811.043C98.8896 810.372 98.506 809.849 98.0004 809.474C97.4947 809.094 96.8697 808.903 96.1254 808.903C95.3583 808.903 94.7191 809.102 94.2077 809.5C93.6964 809.892 93.31 810.426 93.0487 811.102C92.793 811.778 92.6651 812.534 92.6651 813.369C92.6651 814.227 92.7958 814.98 93.0572 815.628C93.3185 816.276 93.7049 816.781 94.2163 817.145C94.7333 817.509 95.3697 817.69 96.1254 817.69ZM105.475 820V806.909H107.938V808.989H108.074C108.313 808.284 108.733 807.73 109.336 807.327C109.944 806.918 110.631 806.713 111.398 806.713C111.557 806.713 111.745 806.719 111.961 806.73C112.182 806.741 112.355 806.756 112.48 806.773V809.21C112.378 809.182 112.196 809.151 111.935 809.116C111.674 809.077 111.412 809.057 111.151 809.057C110.549 809.057 110.012 809.185 109.54 809.44C109.074 809.69 108.705 810.04 108.432 810.489C108.159 810.932 108.023 811.437 108.023 812.006V820H105.475ZM119.859 820.264C118.569 820.264 117.458 819.989 116.527 819.438C115.6 818.881 114.885 818.099 114.379 817.094C113.879 816.082 113.629 814.898 113.629 813.54C113.629 812.199 113.879 811.017 114.379 809.994C114.885 808.972 115.589 808.173 116.493 807.599C117.402 807.026 118.464 806.739 119.68 806.739C120.419 806.739 121.135 806.861 121.828 807.105C122.521 807.349 123.143 807.733 123.694 808.256C124.245 808.778 124.68 809.457 124.998 810.293C125.316 811.122 125.475 812.131 125.475 813.318V814.222H115.069V812.312H122.978C122.978 811.642 122.842 811.048 122.569 810.531C122.297 810.009 121.913 809.597 121.419 809.295C120.93 808.994 120.356 808.844 119.697 808.844C118.981 808.844 118.356 809.02 117.822 809.372C117.294 809.719 116.885 810.173 116.595 810.736C116.311 811.293 116.169 811.898 116.169 812.551V814.043C116.169 814.918 116.322 815.662 116.629 816.276C116.941 816.889 117.376 817.358 117.933 817.682C118.49 818 119.14 818.159 119.885 818.159C120.368 818.159 120.808 818.091 121.206 817.955C121.603 817.812 121.947 817.602 122.237 817.324C122.527 817.045 122.748 816.702 122.902 816.293L125.314 816.727C125.12 817.437 124.774 818.06 124.274 818.594C123.779 819.122 123.157 819.534 122.407 819.83C121.663 820.119 120.814 820.264 119.859 820.264ZM133.792 825.182C132.752 825.182 131.857 825.045 131.107 824.773C130.363 824.5 129.755 824.139 129.283 823.69C128.811 823.241 128.459 822.75 128.226 822.216L130.417 821.312C130.57 821.562 130.775 821.827 131.03 822.105C131.292 822.389 131.644 822.631 132.087 822.83C132.536 823.028 133.113 823.128 133.817 823.128C134.783 823.128 135.581 822.892 136.212 822.42C136.843 821.955 137.158 821.21 137.158 820.188V817.614H136.996C136.843 817.892 136.621 818.202 136.331 818.543C136.047 818.884 135.655 819.179 135.155 819.429C134.655 819.679 134.005 819.804 133.203 819.804C132.169 819.804 131.238 819.562 130.408 819.08C129.584 818.591 128.931 817.872 128.448 816.923C127.971 815.969 127.732 814.795 127.732 813.403C127.732 812.011 127.968 810.818 128.439 809.824C128.917 808.83 129.57 808.068 130.4 807.54C131.229 807.006 132.169 806.739 133.221 806.739C134.033 806.739 134.689 806.875 135.189 807.148C135.689 807.415 136.078 807.727 136.357 808.085C136.641 808.443 136.86 808.759 137.013 809.031H137.201V806.909H139.698V820.29C139.698 821.415 139.436 822.338 138.914 823.06C138.391 823.781 137.684 824.315 136.792 824.662C135.905 825.009 134.905 825.182 133.792 825.182ZM133.766 817.69C134.499 817.69 135.118 817.52 135.624 817.179C136.135 816.832 136.522 816.338 136.783 815.696C137.05 815.048 137.184 814.273 137.184 813.369C137.184 812.489 137.053 811.713 136.792 811.043C136.53 810.372 136.147 809.849 135.641 809.474C135.135 809.094 134.51 808.903 133.766 808.903C132.999 808.903 132.36 809.102 131.848 809.5C131.337 809.892 130.951 810.426 130.689 811.102C130.434 811.778 130.306 812.534 130.306 813.369C130.306 814.227 130.436 814.98 130.698 815.628C130.959 816.276 131.346 816.781 131.857 817.145C132.374 817.509 133.01 817.69 133.766 817.69ZM146.925 820.29C146.096 820.29 145.346 820.136 144.675 819.83C144.005 819.517 143.473 819.065 143.081 818.474C142.695 817.884 142.502 817.159 142.502 816.301C142.502 815.562 142.644 814.955 142.928 814.477C143.212 814 143.596 813.622 144.078 813.344C144.561 813.065 145.101 812.855 145.698 812.713C146.294 812.571 146.902 812.463 147.522 812.389C148.306 812.298 148.942 812.224 149.431 812.168C149.919 812.105 150.275 812.006 150.496 811.869C150.718 811.733 150.828 811.511 150.828 811.205V811.145C150.828 810.401 150.618 809.824 150.198 809.415C149.783 809.006 149.164 808.801 148.34 808.801C147.482 808.801 146.806 808.991 146.311 809.372C145.823 809.747 145.485 810.165 145.297 810.625L142.902 810.08C143.186 809.284 143.601 808.642 144.147 808.153C144.698 807.659 145.331 807.301 146.047 807.08C146.763 806.852 147.516 806.739 148.306 806.739C148.828 806.739 149.382 806.801 149.968 806.926C150.559 807.045 151.11 807.267 151.621 807.591C152.138 807.915 152.561 808.378 152.891 808.98C153.221 809.577 153.385 810.352 153.385 811.307V820H150.897V818.21H150.794C150.63 818.54 150.382 818.864 150.053 819.182C149.723 819.5 149.3 819.764 148.783 819.974C148.266 820.185 147.647 820.29 146.925 820.29ZM147.479 818.244C148.184 818.244 148.786 818.105 149.286 817.827C149.792 817.548 150.175 817.185 150.436 816.736C150.703 816.281 150.837 815.795 150.837 815.278V813.591C150.746 813.682 150.57 813.767 150.309 813.847C150.053 813.92 149.76 813.986 149.431 814.043C149.101 814.094 148.78 814.142 148.468 814.188C148.155 814.227 147.894 814.261 147.684 814.29C147.189 814.352 146.738 814.457 146.328 814.605C145.925 814.753 145.601 814.966 145.357 815.244C145.118 815.517 144.999 815.881 144.999 816.335C144.999 816.966 145.232 817.443 145.698 817.767C146.164 818.085 146.757 818.244 147.479 818.244ZM156.779 820V806.909H159.243V808.989H159.379C159.618 808.284 160.038 807.73 160.64 807.327C161.248 806.918 161.936 806.713 162.703 806.713C162.862 806.713 163.049 806.719 163.265 806.73C163.487 806.741 163.66 806.756 163.785 806.773V809.21C163.683 809.182 163.501 809.151 163.24 809.116C162.978 809.077 162.717 809.057 162.456 809.057C161.853 809.057 161.316 809.185 160.845 809.44C160.379 809.69 160.01 810.04 159.737 810.489C159.464 810.932 159.328 811.437 159.328 812.006V820H156.779ZM180.635 814.571V806.909H183.191V820H180.686V817.733H180.549C180.248 818.432 179.765 819.014 179.1 819.48C178.441 819.94 177.62 820.17 176.637 820.17C175.797 820.17 175.052 819.986 174.404 819.616C173.762 819.241 173.257 818.688 172.887 817.955C172.524 817.222 172.342 816.315 172.342 815.236V806.909H174.89V814.929C174.89 815.821 175.137 816.531 175.632 817.06C176.126 817.588 176.768 817.852 177.558 817.852C178.035 817.852 178.51 817.733 178.981 817.494C179.458 817.256 179.853 816.895 180.166 816.412C180.484 815.929 180.64 815.315 180.635 814.571ZM189.164 812.227V820H186.615V806.909H189.061V809.04H189.223C189.525 808.347 189.996 807.79 190.638 807.369C191.286 806.949 192.101 806.739 193.084 806.739C193.976 806.739 194.757 806.926 195.428 807.301C196.098 807.67 196.618 808.222 196.988 808.955C197.357 809.687 197.542 810.594 197.542 811.673V820H194.993V811.98C194.993 811.031 194.746 810.29 194.252 809.756C193.757 809.216 193.078 808.946 192.215 808.946C191.624 808.946 191.098 809.074 190.638 809.33C190.184 809.585 189.823 809.96 189.556 810.455C189.294 810.943 189.164 811.534 189.164 812.227ZM209.859 812.227V820H207.311V806.909H209.757V809.04H209.919C210.22 808.347 210.691 807.79 211.333 807.369C211.981 806.949 212.797 806.739 213.779 806.739C214.672 806.739 215.453 806.926 216.123 807.301C216.794 807.67 217.314 808.222 217.683 808.955C218.052 809.687 218.237 810.594 218.237 811.673V820H215.689V811.98C215.689 811.031 215.441 810.29 214.947 809.756C214.453 809.216 213.774 808.946 212.91 808.946C212.319 808.946 211.794 809.074 211.333 809.33C210.879 809.585 210.518 809.96 210.251 810.455C209.99 810.943 209.859 811.534 209.859 812.227ZM229.947 814.571V806.909H232.504V820H229.998V817.733H229.862C229.561 818.432 229.078 819.014 228.413 819.48C227.754 819.94 226.933 820.17 225.95 820.17C225.109 820.17 224.365 819.986 223.717 819.616C223.075 819.241 222.569 818.688 222.2 817.955C221.836 817.222 221.654 816.315 221.654 815.236V806.909H224.203V814.929C224.203 815.821 224.45 816.531 224.944 817.06C225.439 817.588 226.081 817.852 226.87 817.852C227.348 817.852 227.822 817.733 228.294 817.494C228.771 817.256 229.166 816.895 229.478 816.412C229.797 815.929 229.953 815.315 229.947 814.571ZM241.57 820.264C240.28 820.264 239.169 819.989 238.238 819.438C237.311 818.881 236.596 818.099 236.09 817.094C235.59 816.082 235.34 814.898 235.34 813.54C235.34 812.199 235.59 811.017 236.09 809.994C236.596 808.972 237.3 808.173 238.203 807.599C239.113 807.026 240.175 806.739 241.391 806.739C242.13 806.739 242.846 806.861 243.539 807.105C244.232 807.349 244.854 807.733 245.405 808.256C245.956 808.778 246.391 809.457 246.709 810.293C247.027 811.122 247.186 812.131 247.186 813.318V814.222H236.78V812.312H244.689C244.689 811.642 244.553 811.048 244.28 810.531C244.007 810.009 243.624 809.597 243.13 809.295C242.641 808.994 242.067 808.844 241.408 808.844C240.692 808.844 240.067 809.02 239.533 809.372C239.005 809.719 238.596 810.173 238.306 810.736C238.022 811.293 237.88 811.898 237.88 812.551V814.043C237.88 814.918 238.033 815.662 238.34 816.276C238.652 816.889 239.087 817.358 239.644 817.682C240.201 818 240.851 818.159 241.596 818.159C242.078 818.159 242.519 818.091 242.917 817.955C243.314 817.812 243.658 817.602 243.948 817.324C244.238 817.045 244.459 816.702 244.613 816.293L247.025 816.727C246.831 817.437 246.485 818.06 245.985 818.594C245.49 819.122 244.868 819.534 244.118 819.83C243.374 820.119 242.525 820.264 241.57 820.264ZM252.562 812.227V820H250.014V806.909H252.46V809.04H252.622C252.923 808.347 253.395 807.79 254.037 807.369C254.684 806.949 255.5 806.739 256.483 806.739C257.375 806.739 258.156 806.926 258.826 807.301C259.497 807.67 260.017 808.222 260.386 808.955C260.755 809.687 260.94 810.594 260.94 811.673V820H258.392V811.98C258.392 811.031 258.145 810.29 257.65 809.756C257.156 809.216 256.477 808.946 255.613 808.946C255.022 808.946 254.497 809.074 254.037 809.33C253.582 809.585 253.221 809.96 252.954 810.455C252.693 810.943 252.562 811.534 252.562 812.227ZM269.872 820.264C268.645 820.264 267.574 819.983 266.659 819.42C265.744 818.858 265.034 818.071 264.528 817.06C264.022 816.048 263.77 814.866 263.77 813.514C263.77 812.156 264.022 810.969 264.528 809.952C265.034 808.935 265.744 808.145 266.659 807.582C267.574 807.02 268.645 806.739 269.872 806.739C271.099 806.739 272.17 807.02 273.085 807.582C274 808.145 274.71 808.935 275.216 809.952C275.721 810.969 275.974 812.156 275.974 813.514C275.974 814.866 275.721 816.048 275.216 817.06C274.71 818.071 274 818.858 273.085 819.42C272.17 819.983 271.099 820.264 269.872 820.264ZM269.88 818.125C270.676 818.125 271.335 817.915 271.858 817.494C272.38 817.074 272.767 816.514 273.017 815.815C273.272 815.116 273.4 814.347 273.4 813.506C273.4 812.67 273.272 811.903 273.017 811.205C272.767 810.5 272.38 809.935 271.858 809.509C271.335 809.082 270.676 808.869 269.88 808.869C269.079 808.869 268.414 809.082 267.886 809.509C267.363 809.935 266.974 810.5 266.718 811.205C266.468 811.903 266.343 812.67 266.343 813.506C266.343 814.347 266.468 815.116 266.718 815.815C266.974 816.514 267.363 817.074 267.886 817.494C268.414 817.915 269.079 818.125 269.88 818.125ZM294.98 810.105L292.67 810.514C292.574 810.219 292.42 809.937 292.21 809.67C292.005 809.403 291.727 809.185 291.375 809.014C291.022 808.844 290.582 808.759 290.054 808.759C289.332 808.759 288.73 808.92 288.247 809.244C287.764 809.562 287.522 809.974 287.522 810.48C287.522 810.918 287.684 811.27 288.008 811.537C288.332 811.804 288.855 812.023 289.576 812.193L291.656 812.67C292.86 812.949 293.758 813.378 294.349 813.957C294.94 814.537 295.235 815.29 295.235 816.216C295.235 817 295.008 817.699 294.554 818.312C294.105 818.92 293.477 819.398 292.67 819.744C291.869 820.091 290.94 820.264 289.883 820.264C288.417 820.264 287.221 819.952 286.295 819.327C285.369 818.696 284.801 817.801 284.591 816.642L287.054 816.267C287.207 816.909 287.522 817.395 288 817.724C288.477 818.048 289.099 818.21 289.866 818.21C290.701 818.21 291.369 818.037 291.869 817.69C292.369 817.338 292.619 816.909 292.619 816.403C292.619 815.994 292.466 815.651 292.159 815.372C291.858 815.094 291.395 814.884 290.77 814.741L288.554 814.256C287.332 813.977 286.429 813.534 285.843 812.926C285.264 812.318 284.974 811.548 284.974 810.616C284.974 809.844 285.19 809.168 285.622 808.588C286.054 808.009 286.65 807.557 287.412 807.233C288.173 806.903 289.045 806.739 290.028 806.739C291.443 806.739 292.556 807.045 293.369 807.659C294.181 808.267 294.718 809.082 294.98 810.105ZM303.679 820.264C302.39 820.264 301.279 819.989 300.347 819.438C299.421 818.881 298.705 818.099 298.199 817.094C297.699 816.082 297.449 814.898 297.449 813.54C297.449 812.199 297.699 811.017 298.199 809.994C298.705 808.972 299.409 808.173 300.313 807.599C301.222 807.026 302.284 806.739 303.5 806.739C304.239 806.739 304.955 806.861 305.648 807.105C306.341 807.349 306.963 807.733 307.515 808.256C308.066 808.778 308.5 809.457 308.819 810.293C309.137 811.122 309.296 812.131 309.296 813.318V814.222H298.89V812.312H306.799C306.799 811.642 306.662 811.048 306.39 810.531C306.117 810.009 305.733 809.597 305.239 809.295C304.75 808.994 304.176 808.844 303.517 808.844C302.801 808.844 302.176 809.02 301.642 809.372C301.114 809.719 300.705 810.173 300.415 810.736C300.131 811.293 299.989 811.898 299.989 812.551V814.043C299.989 814.918 300.142 815.662 300.449 816.276C300.762 816.889 301.196 817.358 301.753 817.682C302.31 818 302.961 818.159 303.705 818.159C304.188 818.159 304.628 818.091 305.026 817.955C305.424 817.812 305.767 817.602 306.057 817.324C306.347 817.045 306.569 816.702 306.722 816.293L309.134 816.727C308.941 817.437 308.594 818.06 308.094 818.594C307.6 819.122 306.978 819.534 306.228 819.83C305.483 820.119 304.634 820.264 303.679 820.264ZM312.123 820V806.909H314.586V808.989H314.723C314.961 808.284 315.382 807.73 315.984 807.327C316.592 806.918 317.279 806.713 318.047 806.713C318.206 806.713 318.393 806.719 318.609 806.73C318.831 806.741 319.004 806.756 319.129 806.773V809.21C319.027 809.182 318.845 809.151 318.583 809.116C318.322 809.077 318.061 809.057 317.799 809.057C317.197 809.057 316.66 809.185 316.189 809.44C315.723 809.69 315.353 810.04 315.081 810.489C314.808 810.932 314.672 811.437 314.672 812.006V820H312.123ZM332.931 806.909L328.184 820H325.457L320.701 806.909H323.437L326.752 816.983H326.889L330.196 806.909H332.931ZM335.326 820V806.909H337.875V820H335.326ZM336.613 804.889C336.17 804.889 335.789 804.741 335.471 804.446C335.159 804.145 335.002 803.787 335.002 803.372C335.002 802.952 335.159 802.594 335.471 802.298C335.789 801.997 336.17 801.847 336.613 801.847C337.056 801.847 337.434 801.997 337.747 802.298C338.065 802.594 338.224 802.952 338.224 803.372C338.224 803.787 338.065 804.145 337.747 804.446C337.434 804.741 337.056 804.889 336.613 804.889ZM346.817 820.264C345.55 820.264 344.459 819.977 343.544 819.403C342.635 818.824 341.936 818.026 341.448 817.009C340.959 815.991 340.715 814.827 340.715 813.514C340.715 812.185 340.965 811.011 341.465 809.994C341.965 808.972 342.669 808.173 343.578 807.599C344.488 807.026 345.559 806.739 346.792 806.739C347.786 806.739 348.672 806.923 349.451 807.293C350.229 807.656 350.857 808.168 351.334 808.827C351.817 809.486 352.104 810.256 352.195 811.136H349.715C349.578 810.523 349.266 809.994 348.777 809.551C348.294 809.108 347.647 808.886 346.834 808.886C346.124 808.886 345.502 809.074 344.968 809.449C344.439 809.818 344.027 810.347 343.732 811.034C343.436 811.716 343.289 812.523 343.289 813.455C343.289 814.409 343.434 815.233 343.723 815.926C344.013 816.619 344.422 817.156 344.951 817.537C345.485 817.918 346.113 818.108 346.834 818.108C347.317 818.108 347.755 818.02 348.147 817.844C348.544 817.662 348.877 817.403 349.144 817.068C349.417 816.733 349.607 816.33 349.715 815.858H352.195C352.104 816.705 351.828 817.46 351.368 818.125C350.908 818.79 350.292 819.312 349.519 819.693C348.752 820.074 347.851 820.264 346.817 820.264ZM354.92 820V806.909H357.468V820H354.92ZM356.207 804.889C355.764 804.889 355.383 804.741 355.065 804.446C354.752 804.145 354.596 803.787 354.596 803.372C354.596 802.952 354.752 802.594 355.065 802.298C355.383 801.997 355.764 801.847 356.207 801.847C356.65 801.847 357.028 801.997 357.341 802.298C357.659 802.594 357.818 802.952 357.818 803.372C357.818 803.787 357.659 804.145 357.341 804.446C357.028 804.741 356.65 804.889 356.207 804.889ZM366.411 820.264C365.184 820.264 364.113 819.983 363.198 819.42C362.283 818.858 361.573 818.071 361.067 817.06C360.561 816.048 360.309 814.866 360.309 813.514C360.309 812.156 360.561 810.969 361.067 809.952C361.573 808.935 362.283 808.145 363.198 807.582C364.113 807.02 365.184 806.739 366.411 806.739C367.638 806.739 368.709 807.02 369.624 807.582C370.539 808.145 371.249 808.935 371.755 809.952C372.26 810.969 372.513 812.156 372.513 813.514C372.513 814.866 372.26 816.048 371.755 817.06C371.249 818.071 370.539 818.858 369.624 819.42C368.709 819.983 367.638 820.264 366.411 820.264ZM366.419 818.125C367.215 818.125 367.874 817.915 368.397 817.494C368.919 817.074 369.306 816.514 369.556 815.815C369.811 815.116 369.939 814.347 369.939 813.506C369.939 812.67 369.811 811.903 369.556 811.205C369.306 810.5 368.919 809.935 368.397 809.509C367.874 809.082 367.215 808.869 366.419 808.869C365.618 808.869 364.953 809.082 364.425 809.509C363.902 809.935 363.513 810.5 363.257 811.205C363.007 811.903 362.882 812.67 362.882 813.506C362.882 814.347 363.007 815.116 363.257 815.815C363.513 816.514 363.902 817.074 364.425 817.494C364.953 817.915 365.618 818.125 366.419 818.125Z" fill="black"/>
<path d="M34.125 790V806.125H18V816.875H34.125V833H44.875V816.875H61V806.125H44.875V790H34.125Z" fill="black"/>
<rect x="0.5" y="781.5" width="389" height="62" stroke="black"/>
</g>
<rect x="0.5" y="0.5" width="389" height="843" stroke="black"/>
<defs>
<clipPath id="clip0_136_327">
<rect width="390" height="844" fill="white"/>
</clipPath>
</defs>
</svg>
